<svg width="11" height="11" viewBox="0 0 11 11" fill="none" xmlns="http://www.w3.org/2000/svg">
<path opacity="0.1" fill-rule="evenodd" clip-rule="evenodd" d="M0.0256348 5.34186C0.0256348 2.39163 2.41727 0 5.3675 0C8.31773 0 10.7094 2.39163 10.7094 5.34186C10.7094 8.2921 8.31773 10.6837 5.3675 10.6837C2.41727 10.6837 0.0256348 8.2921 0.0256348 5.34186Z" fill="white"/>
<path fill-rule="evenodd" clip-rule="evenodd" d="M5.20754 4.34195L5.21875 4.5268L5.03192 4.50416C4.35187 4.4174 3.75777 4.12316 3.25334 3.629L3.00673 3.3838L2.9432 3.56487C2.80869 3.9685 2.89463 4.39477 3.17487 4.68146C3.32433 4.83989 3.2907 4.86253 3.03288 4.76822C2.9432 4.73804 2.86474 4.71541 2.85726 4.72672C2.83111 4.75313 2.92079 5.09641 2.99178 5.23221C3.08893 5.42082 3.28697 5.60566 3.50368 5.71506L3.68677 5.80182L3.47005 5.80559C3.26081 5.80559 3.25334 5.80936 3.27576 5.88858C3.35049 6.13378 3.64567 6.39406 3.97449 6.50723L4.20615 6.58645L4.00438 6.70716C3.70546 6.88068 3.35422 6.97876 3.00299 6.98631C2.83485 6.99008 2.69659 7.00517 2.69659 7.01648C2.69659 7.05421 3.15245 7.26545 3.41774 7.34844C4.21362 7.59364 5.15896 7.48802 5.8689 7.0693C6.37333 6.77129 6.87776 6.17904 7.11317 5.60566C7.24021 5.30011 7.36725 4.74181 7.36725 4.47398C7.36725 4.30046 7.37846 4.27783 7.5877 4.07035C7.71101 3.94964 7.82684 3.81761 7.84926 3.77989C7.88663 3.70822 7.88289 3.70822 7.69233 3.77234C7.37472 3.88551 7.32988 3.87042 7.48682 3.70067C7.60265 3.57996 7.7409 3.36117 7.7409 3.29704C7.7409 3.28572 7.68485 3.30458 7.62133 3.33853C7.55408 3.37626 7.40461 3.43284 7.29252 3.46679L7.09075 3.53092L6.90766 3.40644C6.80677 3.33853 6.66478 3.26309 6.59005 3.24046C6.39949 3.18764 6.10804 3.19519 5.93616 3.25554C5.46909 3.4253 5.17391 3.86288 5.20754 4.34195Z" fill="white"/>
</svg>
