<svg width="11" height="11" viewBox="0 0 11 11" fill="none" xmlns="http://www.w3.org/2000/svg">
<path opacity="0.1" fill-rule="evenodd" clip-rule="evenodd" d="M0 5.34186C0 2.39163 2.39163 0 5.34186 0C8.2921 0 10.6837 2.39163 10.6837 5.34186C10.6837 8.2921 8.2921 10.6837 5.34186 10.6837C2.39163 10.6837 0 8.2921 0 5.34186Z" fill="white"/>
<path fill-rule="evenodd" clip-rule="evenodd" d="M5.34212 2.49286C4.56837 2.49286 4.47127 2.49624 4.16737 2.51007C3.86407 2.52396 3.65704 2.57198 3.47589 2.64243C3.28851 2.7152 3.12956 2.81254 2.9712 2.97096C2.81272 3.12932 2.71538 3.28827 2.64237 3.47559C2.57174 3.6568 2.52366 3.86389 2.51001 4.16708C2.49642 4.47097 2.49286 4.56814 2.49286 5.34188C2.49286 6.11563 2.4963 6.21244 2.51007 6.51633C2.52402 6.81964 2.57204 7.02667 2.64243 7.20782C2.71526 7.3952 2.8126 7.55415 2.97102 7.71251C3.12932 7.87099 3.28827 7.96856 3.47553 8.04133C3.6568 8.11179 3.86389 8.1598 4.16714 8.17369C4.47103 8.18752 4.56808 8.19091 5.34176 8.19091C6.11557 8.19091 6.21238 8.18752 6.51627 8.17369C6.81958 8.1598 7.02684 8.11179 7.20811 8.04133C7.39544 7.96856 7.55415 7.87099 7.71245 7.71251C7.87093 7.55415 7.96827 7.3952 8.04127 7.20787C8.11131 7.02667 8.15939 6.81958 8.17364 6.51639C8.18729 6.2125 8.19085 6.11563 8.19085 5.34188C8.19085 4.56814 8.18729 4.47103 8.17364 4.16714C8.15939 3.86383 8.11131 3.6568 8.04127 3.47565C7.96827 3.28827 7.87093 3.12932 7.71245 2.97096C7.55397 2.81248 7.3955 2.71514 7.20793 2.64243C7.02631 2.57198 6.81916 2.52396 6.51586 2.51007C6.21196 2.49624 6.11522 2.49286 5.34123 2.49286H5.34212ZM5.08653 3.00627C5.16238 3.00615 5.24702 3.00627 5.34211 3.00627C6.1028 3.00627 6.19296 3.009 6.49335 3.02265C6.77113 3.03535 6.92189 3.08177 7.02232 3.12076C7.15527 3.1724 7.25006 3.23413 7.34972 3.33385C7.44944 3.43356 7.51117 3.52853 7.56292 3.66148C7.60192 3.76179 7.64839 3.91256 7.66104 4.19034C7.67469 4.49067 7.67765 4.58089 7.67765 5.34122C7.67765 6.10156 7.67469 6.19177 7.66104 6.49211C7.64833 6.76989 7.60192 6.92065 7.56292 7.02096C7.51128 7.15391 7.44944 7.24858 7.34972 7.34824C7.25 7.44796 7.15533 7.50969 7.02232 7.56132C6.92201 7.6005 6.77113 7.6468 6.49335 7.6595C6.19302 7.67315 6.1028 7.67612 5.34211 7.67612C4.58136 7.67612 4.4912 7.67315 4.19087 7.6595C3.91309 7.64668 3.76232 7.60026 3.66184 7.56126C3.52888 7.50963 3.43391 7.4479 3.3342 7.34818C3.23448 7.24847 3.17275 7.15374 3.121 7.02072C3.082 6.92041 3.03553 6.76965 3.02288 6.49187C3.00923 6.19154 3.0065 6.10132 3.0065 5.34051C3.0065 4.5797 3.00923 4.48996 3.02288 4.18962C3.03559 3.91184 3.082 3.76108 3.121 3.66065C3.17264 3.5277 3.23448 3.43273 3.3342 3.33302C3.43391 3.2333 3.52888 3.17157 3.66184 3.11981C3.76226 3.08064 3.91309 3.03434 4.19087 3.02158C4.45369 3.00971 4.55554 3.00615 5.08653 3.00556V3.00627ZM6.8629 3.47933C6.67415 3.47933 6.52101 3.63228 6.52101 3.82109C6.52101 4.00984 6.67415 4.16297 6.8629 4.16297C7.05164 4.16297 7.20478 4.00984 7.20478 3.82109C7.20478 3.63234 7.05164 3.47933 6.8629 3.47933ZM5.34213 3.87878C4.53413 3.87878 3.87903 4.53388 3.87903 5.34188C3.87903 6.14987 4.53413 6.80467 5.34213 6.80467C6.15012 6.80467 6.80498 6.14987 6.80498 5.34188C6.80498 4.53388 6.15012 3.87878 5.34213 3.87878ZM5.34211 4.3922C5.86657 4.3922 6.29179 4.81736 6.29179 5.34188C6.29179 5.86633 5.86657 6.29155 5.34211 6.29155C4.8176 6.29155 4.39244 5.86633 4.39244 5.34188C4.39244 4.81736 4.8176 4.3922 5.34211 4.3922Z" fill="white"/>
</svg>
