<svg width="11" height="11" viewBox="0 0 11 11" fill="none" xmlns="http://www.w3.org/2000/svg">
<path opacity="0.1" fill-rule="evenodd" clip-rule="evenodd" d="M0.0511475 5.34186C0.0511475 2.39163 2.44278 0 5.39301 0C8.34324 0 10.7349 2.39163 10.7349 5.34186C10.7349 8.2921 8.34324 10.6837 5.39301 10.6837C2.44278 10.6837 0.0511475 8.2921 0.0511475 5.34186Z" fill="white"/>
<path fill-rule="evenodd" clip-rule="evenodd" d="M7.61913 3.50545C7.86431 3.57272 8.05739 3.77096 8.12292 4.02269C8.242 4.47894 8.242 5.43089 8.242 5.43089C8.242 5.43089 8.242 6.38282 8.12292 6.83909C8.05739 7.09083 7.86431 7.28906 7.61913 7.35637C7.17482 7.47861 5.393 7.47861 5.393 7.47861C5.393 7.47861 3.61118 7.47861 3.16684 7.35637C2.92166 7.28906 2.72858 7.09083 2.66305 6.83909C2.54401 6.38282 2.54401 5.43089 2.54401 5.43089C2.54401 5.43089 2.54401 4.47894 2.66305 4.02269C2.72858 3.77096 2.92166 3.57272 3.16684 3.50545C3.61118 3.38318 5.393 3.38318 5.393 3.38318C5.393 3.38318 7.17482 3.38318 7.61913 3.50545ZM4.85882 4.62959V6.41022L6.28332 5.51994L4.85882 4.62959Z" fill="white"/>
</svg>
