<svg width="22" height="19" viewBox="0 0 22 19" fill="none" xmlns="http://www.w3.org/2000/svg">
<path d="M21.8506 12.7253C21.8506 16.0443 19.16 18.7349 15.841 18.7349L6.82659 18.7349C5.90465 18.7349 5.15726 17.9875 5.15726 17.0656L5.15726 5.71411C5.15726 3.87022 6.65203 2.37545 8.49593 2.37545L20.1813 2.37545C21.1032 2.37545 21.8506 3.12283 21.8506 4.04478L21.8506 12.7253Z" fill="#E8F5E9"/>
<path d="M9.13576 6.38553C9.03159 6.38553 8.9469 6.30098 8.9469 6.19667V5.87572C8.9469 5.77154 9.03145 5.68686 9.13576 5.68686C9.23993 5.68686 9.32462 5.77141 9.32462 5.87572V6.19667C9.32462 6.30098 9.23994 6.38553 9.13576 6.38553Z" fill="#103E13"/>
<path d="M8.34169 6.38553C8.23752 6.38553 8.15283 6.30098 8.15283 6.19667V5.87572C8.15283 5.77154 8.23738 5.68686 8.34169 5.68686C8.44586 5.68686 8.53055 5.77141 8.53055 5.87572V6.19667C8.53042 6.30098 8.446 6.38553 8.34169 6.38553Z" fill="#103E13"/>
<path d="M7.54775 6.38553C7.44357 6.38553 7.35889 6.30098 7.35889 6.19667V5.87572C7.35889 5.77154 7.44344 5.68686 7.54775 5.68686C7.65192 5.68686 7.73661 5.77141 7.73661 5.87572V6.19667C7.73661 6.30098 7.65206 6.38553 7.54775 6.38553Z" fill="#103E13"/>
<path d="M9.13576 7.69801C9.03159 7.69801 8.9469 7.61346 8.9469 7.50915V7.18833C8.9469 7.08416 9.03145 6.99947 9.13576 6.99947C9.23993 6.99947 9.32462 7.08402 9.32462 7.18833V7.50915C9.32462 7.61346 9.23994 7.69801 9.13576 7.69801Z" fill="#103E13"/>
<path d="M8.34169 7.69801C8.23752 7.69801 8.15283 7.61346 8.15283 7.50915V7.18833C8.15283 7.08416 8.23738 6.99947 8.34169 6.99947C8.44586 6.99947 8.53055 7.08402 8.53055 7.18833V7.50915C8.53042 7.61346 8.446 7.69801 8.34169 7.69801Z" fill="#103E13"/>
<path d="M7.54775 7.69801C7.44357 7.69801 7.35889 7.61346 7.35889 7.50915V7.18833C7.35889 7.08416 7.44344 6.99947 7.54775 6.99947C7.65192 6.99947 7.73661 7.08402 7.73661 7.18833V7.50915C7.73661 7.61346 7.65206 7.69801 7.54775 7.69801Z" fill="#103E13"/>
<path d="M9.13576 9.01055C9.03159 9.01055 8.9469 8.926 8.9469 8.82169V8.50074C8.9469 8.39657 9.03145 8.31188 9.13576 8.31188C9.23993 8.31188 9.32462 8.39643 9.32462 8.50074V8.82169C9.32462 8.926 9.23994 9.01055 9.13576 9.01055Z" fill="#103E13"/>
<path d="M8.34169 9.01055C8.23752 9.01055 8.15283 8.926 8.15283 8.82169V8.50074C8.15283 8.39657 8.23738 8.31188 8.34169 8.31188C8.44586 8.31188 8.53055 8.39643 8.53055 8.50074V8.82169C8.53042 8.926 8.446 9.01055 8.34169 9.01055Z" fill="#103E13"/>
<path d="M7.54775 9.01055C7.44357 9.01055 7.35889 8.926 7.35889 8.82169V8.50074C7.35889 8.39657 7.44344 8.31188 7.54775 8.31188C7.65192 8.31188 7.73661 8.39643 7.73661 8.50074V8.82169C7.73661 8.926 7.65206 9.01055 7.54775 9.01055Z" fill="#103E13"/>
<path d="M9.13576 10.3228C9.03159 10.3228 8.9469 10.2382 8.9469 10.1339V9.81297C8.9469 9.7088 9.03145 9.62411 9.13576 9.62411C9.23993 9.62411 9.32462 9.70867 9.32462 9.81297V10.1339C9.32462 10.2382 9.23994 10.3228 9.13576 10.3228Z" fill="#103E13"/>
<path d="M8.34169 10.3228C8.23752 10.3228 8.15283 10.2382 8.15283 10.1339V9.81297C8.15283 9.7088 8.23738 9.62411 8.34169 9.62411C8.44586 9.62411 8.53055 9.70867 8.53055 9.81297V10.1339C8.53042 10.2382 8.446 10.3228 8.34169 10.3228Z" fill="#103E13"/>
<path d="M7.54775 10.3228C7.44357 10.3228 7.35889 10.2382 7.35889 10.1339V9.81297C7.35889 9.7088 7.44344 9.62411 7.54775 9.62411C7.65192 9.62411 7.73661 9.70867 7.73661 9.81297V10.1339C7.73661 10.2382 7.65206 10.3228 7.54775 10.3228Z" fill="#103E13"/>
<path d="M9.13576 11.6353C9.03159 11.6353 8.9469 11.5507 8.9469 11.4464V11.1256C8.9469 11.0214 9.03145 10.9367 9.13576 10.9367C9.23993 10.9367 9.32462 11.0213 9.32462 11.1256V11.4464C9.32462 11.5506 9.23994 11.6353 9.13576 11.6353Z" fill="#103E13"/>
<path d="M8.34169 11.6353C8.23752 11.6353 8.15283 11.5507 8.15283 11.4464V11.1256C8.15283 11.0214 8.23738 10.9367 8.34169 10.9367C8.44586 10.9367 8.53055 11.0213 8.53055 11.1256V11.4464C8.53042 11.5506 8.446 11.6353 8.34169 11.6353Z" fill="#103E13"/>
<path d="M7.54775 11.6353C7.44357 11.6353 7.35889 11.5507 7.35889 11.4464L7.35902 11.1256C7.35902 11.0214 7.44357 10.9367 7.54788 10.9367C7.65205 10.9367 7.73674 11.0213 7.73674 11.1256V11.4464C7.73661 11.5506 7.65206 11.6353 7.54775 11.6353V11.6353Z" fill="#103E13"/>
<path d="M2.15262 12.9414C2.15262 13.0456 2.23718 13.1302 2.34148 13.1302H13.8424C13.9466 13.1302 14.0313 13.0457 14.0313 12.9414C14.0313 12.8372 13.9467 12.7525 13.8424 12.7525H13.4933V7.3301C13.4933 7.22593 13.4088 7.14124 13.3045 7.14124L10.221 7.14137V3.23209C10.221 3.16597 10.1865 3.10487 10.1301 3.07062C10.0738 3.03625 10.0035 3.03414 9.94505 3.06456L6.43933 4.88981C6.37677 4.92234 6.33779 4.98687 6.33779 5.05733V8.47201H2.94502C2.84085 8.47201 2.75616 8.55656 2.75616 8.66087V12.7526H2.34106C2.23689 12.7524 2.15247 12.837 2.15247 12.9413L2.15262 12.9414ZM10.221 10.0017H13.1158V12.7527L10.221 12.7525V10.0017ZM10.221 8.68932H13.1158V9.62414L10.221 9.62401V8.68932ZM10.221 7.51889H13.1158V8.31188H10.221V7.51889ZM6.71531 5.17201L9.84318 3.54339V12.7524H6.71531V5.17201ZM4.06748 11.2441C4.06748 10.8522 4.37803 10.5332 4.75983 10.5332C5.14162 10.5332 5.4523 10.8521 5.4523 11.2441V12.7526H4.06748V11.2441ZM3.13387 8.84967H6.33773V12.7525H5.83002V11.2441C5.83002 10.6439 5.35011 10.1556 4.75983 10.1556C4.16981 10.1556 3.68991 10.6438 3.68991 11.2441V12.7525H3.13387V8.84967Z" fill="#103E13"/>
</svg>
