<svg width="22" height="20" viewBox="0 0 22 20" fill="none" xmlns="http://www.w3.org/2000/svg">
<path d="M21.8404 13.5882C21.8404 16.9072 19.1498 19.5977 15.8308 19.5977L6.81643 19.5977C5.89448 19.5977 5.1471 18.8504 5.1471 17.9284L5.1471 6.57695C5.1471 4.73306 6.64187 3.23829 8.48576 3.23829L20.1711 3.23829C21.093 3.23829 21.8404 3.98567 21.8404 4.90762L21.8404 13.5882Z" fill="#E8F5E9"/>
<path d="M8.14852 4.2399C6.9562 4.2399 5.98555 5.21942 5.98555 6.41682C5.98555 7.17431 6.37452 7.84314 6.96188 8.23299C6.25247 8.4702 5.63862 8.91353 5.18839 9.49352C4.93947 9.30205 4.66133 9.14807 4.36149 9.03773C4.81617 8.70017 5.1133 8.15794 5.1133 7.54851C5.1133 6.53297 4.29196 5.70163 3.28258 5.70163C2.27319 5.70163 1.45186 6.53297 1.45186 7.54851C1.45186 8.15829 1.74923 8.70077 2.2043 9.03833C0.999511 9.48291 0.139069 10.6469 0.139069 12.0167V12.979C0.139192 13.0524 0.168535 13.1226 0.220562 13.1743C0.272588 13.2261 0.342987 13.2549 0.416344 13.2547H4.63807C4.64831 13.2558 4.65854 13.2564 4.66877 13.2563H11.6285C11.6387 13.2564 11.6491 13.2558 11.6592 13.2547H15.8813C16.033 13.2541 16.1559 13.1309 16.1563 12.979V12.0167C16.1563 10.6469 15.2973 9.48291 14.0932 9.0382C14.5483 8.70077 14.8456 8.15816 14.8456 7.54838C14.8456 6.53284 14.0243 5.7015 13.0149 5.7015C12.0056 5.7015 11.1842 6.53284 11.1842 7.54838C11.1842 8.15781 11.4814 8.70014 11.9361 9.0376C11.6357 9.14819 11.3574 9.30267 11.1081 9.49462C10.6581 8.91429 10.0451 8.47034 9.33573 8.23299C9.92294 7.84314 10.3121 7.17431 10.3121 6.41682C10.3121 5.21942 9.34091 4.2399 8.14859 4.2399H8.14852ZM8.14852 4.79223C9.04027 4.79223 9.75916 5.51595 9.75916 6.41682C9.75916 7.31066 9.05148 8.02734 8.1696 8.03882C8.16258 8.03882 8.15567 8.03784 8.14852 8.03784C8.14137 8.03784 8.13459 8.03882 8.12744 8.03882C7.24557 8.02748 6.53836 7.31069 6.53836 6.41682C6.53836 5.51582 7.25664 4.79223 8.1484 4.79223H8.14852ZM3.28261 6.25393C3.99017 6.25393 4.561 6.8282 4.561 7.54848C4.561 8.26392 3.99755 8.83573 3.29665 8.8435C3.29197 8.8435 3.28741 8.843 3.2826 8.843C3.27792 8.843 3.27335 8.8435 3.26855 8.8435C2.56765 8.83573 2.0042 8.2638 2.0042 7.54848C2.0042 6.82823 2.57503 6.25393 3.28259 6.25393H3.28261ZM13.0147 6.25393C13.7223 6.25393 14.2931 6.8282 14.2931 7.54848C14.2931 8.26392 13.7297 8.83573 13.0288 8.8435C13.0241 8.8435 13.0195 8.843 13.0147 8.843C13.0101 8.843 13.0055 8.8435 13.0007 8.8435C12.2998 8.83573 11.7363 8.2638 11.7363 7.54848C11.7363 6.82823 12.3072 6.25393 13.0147 6.25393H13.0147ZM8.12737 8.59113C8.1344 8.59125 8.14131 8.59211 8.14846 8.59211C8.15548 8.59211 8.16239 8.59113 8.16954 8.59113C9.93811 8.60247 11.3535 10.03 11.3535 11.8171L11.3534 12.7038H4.94378V11.8171C4.94378 10.0299 6.35877 8.60249 8.12712 8.59113H8.12737ZM3.26146 9.39646C3.26849 9.39659 3.2754 9.39745 3.28255 9.39745C3.2897 9.39745 3.29648 9.39646 3.30363 9.39646C3.90182 9.40127 4.44775 9.60753 4.88245 9.95262C4.57139 10.503 4.39151 11.1383 4.39151 11.8172V12.7018H0.69118V12.0167C0.69118 10.5644 1.83309 9.40779 3.2614 9.39634L3.26146 9.39646ZM12.9936 9.39646C13.0007 9.39659 13.0075 9.39745 13.0147 9.39745C13.0218 9.39745 13.0286 9.39646 13.0358 9.39646C14.4641 9.40781 15.606 10.5645 15.606 12.0168V12.7018H11.9038L11.9036 11.8172C11.9036 11.1387 11.7243 10.5038 11.4138 9.9536C11.8486 9.60802 12.3949 9.40126 12.9936 9.39646H12.9936Z" fill="#103E13"/>
</svg>
