<svg width="23" height="20" viewBox="0 0 23 20" fill="none" xmlns="http://www.w3.org/2000/svg">
<path d="M22.6285 13.5882C22.6285 16.9072 19.9379 19.5977 16.6189 19.5977L7.60449 19.5977C6.68254 19.5977 5.93515 18.8504 5.93515 17.9284L5.93515 6.57695C5.93515 4.73306 7.42992 3.23829 9.27382 3.23829L20.9591 3.23829C21.8811 3.23829 22.6285 3.98567 22.6285 4.90762L22.6285 13.5882Z" fill="#E8F5E9"/>
<path d="M10.3795 8.79545C10.2991 8.79545 10.2245 8.77334 10.1582 8.73779V8.73873C10.1582 8.86521 10.109 8.984 10.0198 9.07296C9.9306 9.16216 9.81191 9.21132 9.68557 9.21132C9.604 9.21132 9.52841 9.18866 9.46139 9.15217C9.45463 9.26787 9.40838 9.37603 9.32586 9.45862C9.23666 9.54782 9.11797 9.59698 8.99156 9.59698C8.74039 9.59698 8.53643 9.39955 8.52173 9.15209C8.44402 9.19409 8.35615 9.21612 8.26553 9.2103C8.01846 9.19409 7.82497 8.98062 7.82497 8.72418V6.59857L7.58293 7.01789C7.49074 7.17828 7.31817 7.27785 7.13237 7.27785C7.04184 7.27785 6.9524 7.2541 6.8732 7.20871C6.77456 7.15153 6.704 7.05974 6.67466 6.94992C6.64517 6.84003 6.66042 6.72512 6.71745 6.62663C6.71753 6.62663 7.50938 5.25537 7.55769 5.17114C7.56343 5.15848 7.57979 5.12174 7.59371 5.09044C7.60701 5.06055 7.61841 5.02987 7.62935 4.99904C7.86814 4.32487 8.45943 3.90609 9.17255 3.90609C10.0986 3.90609 10.852 4.72302 10.852 5.72719L10.8521 8.32279C10.8521 8.44911 10.803 8.56781 10.7138 8.6571C10.6247 8.74629 10.506 8.79546 10.3795 8.79546L10.3795 8.79545ZM9.17256 4.1572C8.5598 4.1572 8.07141 4.50331 7.86604 5.08302C7.8529 5.11983 7.83922 5.15664 7.82325 5.19251C7.77692 5.29642 7.77692 5.29642 7.76386 5.31136L7.76213 5.30987C7.69747 5.43187 7.50539 5.76451 6.93488 6.75231C6.91144 6.79281 6.90523 6.83985 6.91718 6.88484C6.9293 6.92984 6.95832 6.96775 6.99852 6.99095C7.12327 7.06261 7.29412 7.01636 7.36522 6.89247L7.84182 6.06734C7.87029 6.01818 7.92787 5.99403 7.98309 6.00898C8.03799 6.02369 8.07614 6.07348 8.07614 6.13027V8.72425C8.07614 8.84664 8.16848 8.95228 8.28199 8.95975C8.34744 8.96321 8.40847 8.94126 8.45433 8.89549C8.49602 8.8538 8.51899 8.79826 8.51899 8.73888V7.04238C8.51899 6.973 8.57523 6.91676 8.64461 6.91676C8.71398 6.91676 8.77022 6.97292 8.77022 7.04238L8.77015 9.12449C8.77015 9.24657 8.86949 9.34591 8.99157 9.34591C9.05088 9.34591 9.10657 9.32295 9.14833 9.28126C9.19002 9.23949 9.21299 9.1838 9.21299 9.12449V7.04237C9.21299 6.973 9.26915 6.91676 9.33861 6.91676C9.40798 6.91676 9.46423 6.97292 9.46423 7.04237L9.46415 8.71936V8.73887C9.46415 8.86087 9.56349 8.96021 9.68565 8.96021C9.74488 8.96021 9.80041 8.93717 9.84242 8.89532C9.8841 8.85371 9.90707 8.79817 9.90707 8.73879V7.04229C9.90707 6.97291 9.96323 6.91667 10.0327 6.91667C10.1021 6.91667 10.1583 6.97283 10.1583 7.04229L10.1581 8.32285C10.1581 8.445 10.2575 8.54435 10.3795 8.54435C10.4389 8.54435 10.4944 8.5213 10.5361 8.47969C10.5779 8.43785 10.6008 8.38216 10.6008 8.32285L10.6009 5.72725C10.6009 4.86162 9.96017 4.15723 9.17255 4.15723L9.17256 4.1572Z" fill="#103E13"/>
<path d="M5.44408 10.5994L7.2669 9.50592C7.48667 9.37394 7.76945 9.43002 7.9104 9.63367C7.96184 9.70784 7.98812 9.79429 7.99221 9.88231C8.06017 9.84684 8.13411 9.82756 8.20938 9.82756C8.24792 9.82756 8.28662 9.83236 8.32485 9.84188C8.44732 9.87248 8.55052 9.94901 8.61542 10.0572C8.68039 10.1656 8.69935 10.2927 8.66875 10.415C8.64051 10.5282 8.57168 10.6234 8.47596 10.6888C8.54289 10.7283 8.60063 10.7822 8.64169 10.8508C8.70666 10.9592 8.72562 11.0861 8.6951 11.2086C8.6645 11.3309 8.58797 11.4341 8.47958 11.4992L8.47895 11.4995C8.54471 11.539 8.60142 11.5923 8.64201 11.6599C8.70706 11.7682 8.72602 11.8953 8.69542 12.0177C8.66474 12.1401 8.58821 12.2433 8.47998 12.3083L6.25429 13.6435C5.83889 13.8926 5.35868 13.9786 4.9023 13.8854C4.44184 13.7913 4.0605 13.5267 3.82862 13.1401C3.46168 12.5286 3.51667 11.806 3.97186 11.2545C3.99271 11.2294 4.01323 11.2037 4.03188 11.1771C4.05162 11.149 4.07467 11.116 4.08253 11.1047C4.12965 11.0205 4.89846 9.63534 4.89838 9.6355C4.97602 9.49541 5.12154 9.41611 5.27161 9.41619C5.34162 9.41619 5.41265 9.43342 5.47817 9.46976C5.5573 9.51397 5.62377 9.57839 5.67026 9.65602C5.76583 9.81531 5.76921 10.0146 5.67923 10.1759L5.44408 10.5994ZM5.45502 9.78516C5.43063 9.74449 5.39712 9.71208 5.35614 9.68912C5.27143 9.64224 5.16477 9.67275 5.11813 9.75715C4.568 10.7483 4.38047 11.086 4.3081 11.2062L4.30975 11.2066C4.30369 11.2267 4.30369 11.2267 4.23746 11.3214C4.21497 11.3534 4.1905 11.3841 4.16557 11.4144C3.77416 11.8886 3.72871 12.4854 4.04388 13.0109C4.23911 13.3364 4.56177 13.5596 4.95246 13.6393C5.3474 13.7196 5.76366 13.6449 6.12495 13.4281L8.35084 12.0928C8.40165 12.0624 8.43752 12.014 8.45184 11.9567C8.46615 11.8994 8.45727 11.8399 8.42675 11.7891C8.36398 11.6845 8.22766 11.6501 8.12305 11.7131L7.02498 12.3719C6.96552 12.4076 6.88827 12.3884 6.85264 12.3288C6.81693 12.2694 6.8362 12.1922 6.89567 12.1565L7.99381 11.4977L8.35045 11.2838C8.40126 11.2532 8.43721 11.2049 8.45153 11.1477C8.46584 11.0903 8.45695 11.0307 8.42643 10.98C8.36359 10.8753 8.22727 10.8412 8.12274 10.904L6.66795 11.7767C6.60833 11.8125 6.53132 11.7932 6.49561 11.7337C6.4599 11.6742 6.47925 11.5971 6.53864 11.5614L8.3241 10.4903C8.37491 10.4598 8.41078 10.4115 8.4251 10.3541C8.43941 10.2969 8.43053 10.2373 8.40008 10.1865C8.36964 10.1358 8.32127 10.0999 8.26393 10.0856C8.20627 10.0713 8.14696 10.0802 8.09631 10.1105L7.76579 10.3088C7.76571 10.3088 7.76571 10.3089 7.76563 10.3089H7.76555L6.31085 11.1816C6.25123 11.2175 6.17414 11.1981 6.13851 11.1386C6.1028 11.0791 6.12215 11.002 6.18153 10.9662L7.63632 10.0935C7.68713 10.063 7.72308 10.0146 7.73739 9.95745C7.75312 9.89468 7.74117 9.83049 7.70388 9.77669C7.63923 9.68317 7.50095 9.65831 7.3961 9.72132L5.17182 11.0557C5.12313 11.0848 5.06075 11.0777 5.01993 11.0383C4.97903 10.9988 4.96982 10.9368 4.99735 10.8871L5.45987 10.0538C5.50628 9.97051 5.50447 9.86762 5.45499 9.78519L5.45502 9.78516Z" fill="#103E13"/>
<path d="M14.1544 13.14C13.9226 13.5266 13.5413 13.7913 13.0808 13.8853C12.6243 13.9784 12.1443 13.8926 11.7288 13.6435L9.50289 12.3082C9.39458 12.2432 9.31796 12.14 9.28729 12.0174C9.25685 11.8951 9.27588 11.7681 9.34077 11.6598C9.38128 11.5922 9.43807 11.5389 9.50391 11.4995L9.50328 11.4991C9.39497 11.4341 9.31836 11.3309 9.28784 11.2085C9.25717 11.0861 9.2762 10.959 9.34117 10.8506C9.38302 10.781 9.44036 10.7266 9.5058 10.688C9.41078 10.6226 9.34235 10.5276 9.31419 10.415C9.28352 10.2925 9.30255 10.1655 9.36752 10.0573C9.43242 9.94894 9.53569 9.87241 9.65809 9.84181C9.69632 9.83222 9.7351 9.8275 9.77348 9.8275C9.84884 9.82758 9.92278 9.84669 9.99074 9.88225C9.99491 9.79423 10.0211 9.70778 10.0725 9.6336C10.2136 9.43012 10.4961 9.3738 10.7162 9.50586L12.539 10.5992L12.304 10.176C12.2139 10.0145 12.2172 9.81513 12.3127 9.65577C12.3593 9.57822 12.4258 9.5138 12.5054 9.4692C12.5707 9.43301 12.6415 9.41587 12.7114 9.41587C12.8614 9.41595 13.0071 9.49508 13.0846 9.63517C13.3549 10.1222 13.8649 11.0406 13.9008 11.1047C13.9084 11.1158 13.9314 11.1488 13.9512 11.1769C13.97 11.2035 13.9903 11.229 14.0113 11.2544C14.4664 11.8061 14.5213 12.5285 14.1543 13.14L14.1544 13.14ZM13.8175 11.4144C13.7925 11.3842 13.7679 11.3532 13.7456 11.3214C13.6776 11.225 13.6759 11.2224 13.6708 11.1972C13.5913 11.0658 13.3975 10.7168 12.8648 9.75703C12.8181 9.67278 12.7119 9.64203 12.6273 9.68875C12.5857 9.71203 12.5523 9.74452 12.5279 9.78519C12.4785 9.86754 12.4766 9.97043 12.5232 10.054L12.9856 10.887C13.0132 10.9368 13.004 10.9987 12.9632 11.0382C12.9224 11.0778 12.8601 11.0847 12.8112 11.0556L10.5869 9.72124C10.4821 9.65839 10.3439 9.68301 10.2791 9.77661C10.2418 9.83041 10.2299 9.8946 10.2455 9.95729C10.2598 10.0146 10.2957 10.0628 10.3466 10.0934C10.3468 10.0934 10.3469 10.0936 10.347 10.0937L11.8013 10.9662C11.8608 11.0019 11.8801 11.079 11.8444 11.1385C11.8087 11.1979 11.7317 11.2173 11.672 11.1815L9.88656 10.1104C9.83591 10.0801 9.77628 10.0711 9.71902 10.0855C9.6616 10.0998 9.61331 10.1357 9.58286 10.1866C9.55235 10.2373 9.54354 10.2969 9.55769 10.3541C9.57201 10.4114 9.60796 10.4598 9.65877 10.4903L10.0062 10.6987L11.4442 11.5614C11.5036 11.5971 11.5229 11.6742 11.4872 11.7337C11.4515 11.7931 11.3745 11.8125 11.3148 11.7767L9.86022 10.904C9.7556 10.8411 9.61936 10.8752 9.55644 10.98C9.52592 11.0308 9.51711 11.0904 9.53127 11.1476C9.54558 11.2049 9.58153 11.2532 9.63242 11.2838L9.98906 11.4977L11.087 12.1565C11.1465 12.1922 11.1658 12.2693 11.1301 12.3288C11.0944 12.3882 11.0174 12.4077 10.9577 12.3719L9.85974 11.7131C9.80909 11.6827 9.7497 11.6738 9.69212 11.6882C9.63486 11.7025 9.58641 11.7384 9.55597 11.7891C9.52553 11.8399 9.51664 11.8995 9.5308 11.9567C9.54511 12.014 9.58106 12.0623 9.63195 12.0929L11.8578 13.4282C12.219 13.6449 12.6356 13.7199 13.0303 13.6394C13.4209 13.5596 13.7436 13.3364 13.9388 13.011C14.2543 12.4854 14.2089 11.8885 13.8176 11.4144L13.8175 11.4144Z" fill="#103E13"/>
</svg>
