<svg width="14" height="15" viewBox="0 0 14 15" fill="none" xmlns="http://www.w3.org/2000/svg">
<path d="M2.09753 1.90836C2.09753 1.35523 1.73445 0.908356 1.28503 0.908356C0.83562 0.908356 0.472534 1.35523 0.472534 1.90836V12.4084C0.472534 13.7896 1.38152 14.9084 2.50378 14.9084H12.66C13.1094 14.9084 13.4725 14.4615 13.4725 13.9084C13.4725 13.3552 13.1094 12.9084 12.66 12.9084H2.50378C2.28035 12.9084 2.09753 12.6834 2.09753 12.4084V1.90836ZM12.4214 4.61461C12.7387 4.22398 12.7387 3.58961 12.4214 3.19898C12.104 2.80836 11.5885 2.80836 11.2712 3.19898L8.59753 6.49273L7.14011 4.69898C6.82273 4.30836 6.3073 4.30836 5.98992 4.69898L3.14617 8.19898C2.82878 8.58961 2.82878 9.22398 3.14617 9.61461C3.46355 10.0052 3.97898 10.0052 4.29636 9.61461L6.56628 6.82398L8.02371 8.61773C8.34109 9.00836 8.85652 9.00836 9.1739 8.61773L12.4239 4.61773L12.4214 4.61461Z" fill="#4CAF4F"/>
</svg>
