<svg width="14" height="15" viewBox="0 0 14 15" fill="none" xmlns="http://www.w3.org/2000/svg">
<g clip-path="url(#clip0_113_4882)">
<path d="M2.45549 0.263016C1.26043 0.263016 0.288818 1.04778 0.288818 2.01302V12.513C0.288818 13.4783 1.26043 14.263 2.45549 14.263H11.1222C12.3172 14.263 13.2888 13.4783 13.2888 12.513V4.63802H8.95549C8.35627 4.63802 7.87215 4.247 7.87215 3.76302V0.263016H2.45549ZM8.95549 0.263016V3.76302H13.2888L8.95549 0.263016ZM2.99715 2.01302H5.16382C5.46174 2.01302 5.70549 2.20989 5.70549 2.45052C5.70549 2.69114 5.46174 2.88802 5.16382 2.88802H2.99715C2.69924 2.88802 2.45549 2.69114 2.45549 2.45052C2.45549 2.20989 2.69924 2.01302 2.99715 2.01302ZM2.99715 3.76302H5.16382C5.46174 3.76302 5.70549 3.95989 5.70549 4.20052C5.70549 4.44114 5.46174 4.63802 5.16382 4.63802H2.99715C2.69924 4.63802 2.45549 4.44114 2.45549 4.20052C2.45549 3.95989 2.69924 3.76302 2.99715 3.76302ZM4.83205 10.7029C4.62554 11.2579 3.99246 11.638 3.27476 11.638H2.99715C2.69924 11.638 2.45549 11.4411 2.45549 11.2005C2.45549 10.9599 2.69924 10.763 2.99715 10.763H3.27476C3.51512 10.763 3.72502 10.6372 3.79272 10.4513L4.29715 9.09778C4.41226 8.7888 4.76434 8.57552 5.16382 8.57552C5.5633 8.57552 5.91538 8.78606 6.03049 9.09778L6.42319 10.1533C6.67371 9.98372 6.99194 9.88802 7.33049 9.88802C7.86877 9.88802 8.35965 10.1341 8.60002 10.5224L8.74897 10.763H10.5805C10.8784 10.763 11.1222 10.9599 11.1222 11.2005C11.1222 11.4411 10.8784 11.638 10.5805 11.638H8.41382C8.20731 11.638 8.02111 11.545 7.9297 11.3974L7.63179 10.9134C7.57423 10.8204 7.45913 10.763 7.33387 10.763C7.20861 10.763 7.09012 10.8204 7.03595 10.9134L6.73804 11.3974C6.63986 11.5587 6.42658 11.6544 6.20653 11.638C5.98647 11.6216 5.79689 11.4986 5.73595 11.329L5.16382 9.80598L4.83205 10.7029Z" fill="#4CAF4F"/>
</g>
<defs>
<clipPath id="clip0_113_4882">
<rect width="13" height="14" fill="white" transform="translate(0.288818 0.263016)"/>
</clipPath>
</defs>
</svg>
